<svg width="184" height="41" viewBox="0 0 184 41" fill="none" xmlns="http://www.w3.org/2000/svg">
<path fill-rule="evenodd" clip-rule="evenodd" d="M35.22 10.5295C32.0495 6.62134 27.0598 4.10156 21.4478 4.10156C11.8677 4.10156 4.10156 11.4441 4.10156 20.5016C4.10156 29.559 11.8677 36.9016 21.4478 36.9016C27.1424 36.9016 32.1961 34.3071 35.3587 30.3002L22.1183 20.418L35.22 10.5295Z" fill="#FEB803"/>
<mask id="mask0_2796_9088" style="mask-type:luminance" maskUnits="userSpaceOnUse" x="29" y="16" width="8" height="9">
<path d="M36.9004 16.6133H29.0469V24.2529H36.9004V16.6133Z" fill="white"/>
</mask>
<g mask="url(#mask0_2796_9088)">
<path d="M36.7443 19.5433C36.6401 19.442 36.5136 19.3913 36.3649 19.3913H34.0445V17.1341C34.0445 16.9895 33.9925 16.8665 33.8884 16.7651C33.7843 16.6639 33.6579 16.6133 33.509 16.6133H32.4381C32.2894 16.6133 32.163 16.6639 32.0589 16.7652C31.9547 16.8665 31.9027 16.9895 31.9027 17.1341V19.3914H29.5823C29.4336 19.3914 29.3072 19.442 29.203 19.5433C29.0989 19.6446 29.0469 19.7675 29.0469 19.9122V20.954C29.0469 21.0988 29.0989 21.2217 29.203 21.3229C29.3071 21.4242 29.4336 21.4748 29.5823 21.4748H31.9026V23.7321C31.9026 23.8767 31.9547 23.9998 32.0589 24.1011C32.163 24.2023 32.2894 24.2529 32.4381 24.2529H33.509C33.6579 24.2529 33.7842 24.2023 33.8884 24.1011C33.9925 23.9998 34.0446 23.8767 34.0446 23.7321V21.4748H36.3649C36.5137 21.4748 36.6402 21.4242 36.7443 21.3229C36.8484 21.2217 36.9004 21.0988 36.9004 20.954V19.9122C36.9004 19.7675 36.8484 19.6445 36.7443 19.5433Z" fill="#262626"/>
</g>
<path d="M143.328 18.5743C143.328 19.5503 143.104 20.4463 142.656 21.2623C142.208 22.0623 141.52 22.7103 140.592 23.2063C139.664 23.7023 138.512 23.9503 137.136 23.9503H134.592V29.9983H130.488V13.1503H137.136C138.48 13.1503 139.616 13.3823 140.544 13.8463C141.472 14.3103 142.168 14.9503 142.632 15.7663C143.096 16.5823 143.328 17.5183 143.328 18.5743ZM136.824 20.6863C137.608 20.6863 138.192 20.5023 138.576 20.1343C138.96 19.7663 139.152 19.2463 139.152 18.5743C139.152 17.9023 138.96 17.3823 138.576 17.0143C138.192 16.6463 137.608 16.4623 136.824 16.4623H134.592V20.6863H136.824Z" fill="#FEB803"/>
<path d="M149.569 12.2383V29.9983H145.465V12.2383H149.569Z" fill="#FEB803"/>
<path d="M165.767 16.6063V29.9983H161.663V28.1743C161.247 28.7663 160.679 29.2463 159.959 29.6143C159.255 29.9663 158.471 30.1423 157.607 30.1423C156.583 30.1423 155.679 29.9183 154.895 29.4703C154.111 29.0063 153.503 28.3423 153.071 27.4783C152.639 26.6143 152.423 25.5983 152.423 24.4303V16.6063H156.503V23.8783C156.503 24.7743 156.735 25.4703 157.199 25.9663C157.663 26.4623 158.287 26.7103 159.071 26.7103C159.871 26.7103 160.503 26.4623 160.967 25.9663C161.431 25.4703 161.663 24.7743 161.663 23.8783V16.6063H165.767Z" fill="#FEB803"/>
<path d="M174.163 30.1903C172.995 30.1903 171.955 29.9903 171.043 29.5903C170.131 29.1903 169.411 28.6463 168.883 27.9583C168.355 27.2543 168.059 26.4703 167.995 25.6063H172.051C172.099 26.0703 172.315 26.4463 172.699 26.7343C173.083 27.0223 173.555 27.1663 174.115 27.1663C174.627 27.1663 175.019 27.0703 175.291 26.8783C175.579 26.6703 175.723 26.4063 175.723 26.0863C175.723 25.7023 175.523 25.4223 175.123 25.2463C174.723 25.0543 174.075 24.8463 173.179 24.6223C172.219 24.3983 171.419 24.1663 170.779 23.9263C170.139 23.6703 169.587 23.2783 169.123 22.7503C168.659 22.2063 168.427 21.4783 168.427 20.5663C168.427 19.7983 168.635 19.1023 169.051 18.4783C169.483 17.8383 170.107 17.3343 170.923 16.9663C171.755 16.5983 172.739 16.4143 173.875 16.4143C175.555 16.4143 176.875 16.8303 177.835 17.6623C178.811 18.4943 179.371 19.5983 179.515 20.9743H175.723C175.659 20.5103 175.451 20.1423 175.099 19.8703C174.763 19.5983 174.315 19.4623 173.755 19.4623C173.275 19.4623 172.907 19.5583 172.651 19.7503C172.395 19.9263 172.267 20.1743 172.267 20.4943C172.267 20.8783 172.467 21.1663 172.867 21.3583C173.283 21.5503 173.923 21.7423 174.787 21.9343C175.779 22.1903 176.587 22.4463 177.211 22.7023C177.835 22.9423 178.379 23.3423 178.843 23.9023C179.323 24.4463 179.571 25.1823 179.587 26.1103C179.587 26.8943 179.363 27.5983 178.915 28.2223C178.483 28.8303 177.851 29.3103 177.019 29.6623C176.203 30.0143 175.251 30.1903 174.163 30.1903Z" fill="#FEB803"/>
<path d="M58.5193 18.1183C58.0553 17.1423 57.3833 16.3903 56.5033 15.8623C55.6233 15.3183 54.5993 15.0463 53.4313 15.0463C52.2633 15.0463 51.2073 15.3183 50.2633 15.8623C49.3353 16.3903 48.5993 17.1583 48.0553 18.1663C47.5273 19.1583 47.2633 20.3103 47.2633 21.6223C47.2633 22.9343 47.5273 24.0863 48.0553 25.0783C48.5993 26.0703 49.3353 26.8383 50.2633 27.3823C51.2073 27.9103 52.2633 28.1743 53.4313 28.1743C55.0633 28.1743 56.4073 27.6863 57.4633 26.7103C58.5193 25.7343 59.1353 24.4143 59.3113 22.7503H52.6393V20.9743H61.6392V22.6543C61.5112 24.0303 61.0793 25.2943 60.3433 26.4463C59.6073 27.5823 58.6393 28.4863 57.4392 29.1583C56.2393 29.8143 54.9033 30.1423 53.4313 30.1423C51.8793 30.1423 50.4633 29.7823 49.1832 29.0623C47.9032 28.3263 46.8873 27.3103 46.1352 26.0143C45.3992 24.7183 45.0312 23.2543 45.0312 21.6223C45.0312 19.9903 45.3992 18.5263 46.1352 17.2303C46.8873 15.9183 47.9032 14.9023 49.1832 14.1823C50.4633 13.4463 51.8793 13.0783 53.4313 13.0783C55.2073 13.0783 56.7753 13.5183 58.1353 14.3983C59.5113 15.2783 60.5113 16.5183 61.1353 18.1183H58.5193Z" fill="#262626"/>
<path d="M66.7109 12.2383V29.9983H64.5269V12.2383H66.7109Z" fill="#262626"/>
<path d="M76.1692 30.2143C74.9372 30.2143 73.8172 29.9343 72.8092 29.3743C71.8172 28.8143 71.0332 28.0223 70.4572 26.9983C69.8972 25.9583 69.6172 24.7583 69.6172 23.3983C69.6172 22.0543 69.9052 20.8703 70.4812 19.8463C71.0732 18.8063 71.8732 18.0143 72.8812 17.4703C73.8892 16.9103 75.0172 16.6303 76.2652 16.6303C77.5132 16.6303 78.6412 16.9103 79.6492 17.4703C80.6572 18.0143 81.4492 18.7983 82.0252 19.8223C82.6172 20.8463 82.9132 22.0383 82.9132 23.3983C82.9132 24.7583 82.6092 25.9583 82.0012 26.9983C81.4092 28.0223 80.6012 28.8143 79.5772 29.3743C78.5532 29.9343 77.4172 30.2143 76.1692 30.2143ZM76.1692 28.2943C76.9532 28.2943 77.6892 28.1103 78.3772 27.7423C79.0652 27.3743 79.6172 26.8223 80.0332 26.0863C80.4652 25.3503 80.6812 24.4543 80.6812 23.3983C80.6812 22.3423 80.4732 21.4463 80.0572 20.7103C79.6412 19.9743 79.0972 19.4303 78.4252 19.0783C77.7532 18.7103 77.0252 18.5263 76.2412 18.5263C75.4412 18.5263 74.7052 18.7103 74.0332 19.0783C73.3772 19.4303 72.8492 19.9743 72.4492 20.7103C72.0492 21.4463 71.8492 22.3423 71.8492 23.3983C71.8492 24.4703 72.0412 25.3743 72.4252 26.1103C72.8252 26.8463 73.3532 27.3983 74.0092 27.7663C74.6652 28.1183 75.3852 28.2943 76.1692 28.2943Z" fill="#262626"/>
<path d="M87.9688 19.2943C88.4167 18.5103 89.0728 17.8703 89.9367 17.3743C90.8008 16.8783 91.7848 16.6303 92.8888 16.6303C94.0728 16.6303 95.1367 16.9103 96.0807 17.4703C97.0247 18.0303 97.7688 18.8223 98.3128 19.8463C98.8568 20.8543 99.1287 22.0303 99.1287 23.3743C99.1287 24.7023 98.8568 25.8863 98.3128 26.9263C97.7688 27.9663 97.0168 28.7743 96.0568 29.3503C95.1128 29.9263 94.0568 30.2143 92.8888 30.2143C91.7528 30.2143 90.7528 29.9663 89.8888 29.4703C89.0408 28.9743 88.4007 28.3423 87.9688 27.5743V29.9983H85.7848V12.2383H87.9688V19.2943ZM96.8968 23.3743C96.8968 22.3823 96.6968 21.5183 96.2968 20.7823C95.8968 20.0463 95.3527 19.4863 94.6647 19.1023C93.9927 18.7183 93.2488 18.5263 92.4328 18.5263C91.6328 18.5263 90.8887 18.7263 90.2007 19.1263C89.5287 19.5103 88.9847 20.0783 88.5687 20.8303C88.1687 21.5663 87.9688 22.4223 87.9688 23.3983C87.9688 24.3903 88.1687 25.2623 88.5687 26.0143C88.9847 26.7503 89.5287 27.3183 90.2007 27.7183C90.8887 28.1023 91.6328 28.2943 92.4328 28.2943C93.2488 28.2943 93.9927 28.1023 94.6647 27.7183C95.3527 27.3183 95.8968 26.7503 96.2968 26.0143C96.6968 25.2623 96.8968 24.3823 96.8968 23.3743Z" fill="#262626"/>
<path d="M113.668 16.8463V29.9983H111.483V28.0543C111.067 28.7263 110.483 29.2543 109.731 29.6383C108.995 30.0063 108.18 30.1903 107.284 30.1903C106.259 30.1903 105.34 29.9823 104.523 29.5663C103.707 29.1343 103.059 28.4943 102.579 27.6463C102.115 26.7983 101.883 25.7663 101.883 24.5503V16.8463H104.043V24.2623C104.043 25.5583 104.371 26.5583 105.028 27.2623C105.684 27.9503 106.579 28.2943 107.715 28.2943C108.883 28.2943 109.804 27.9343 110.476 27.2143C111.147 26.4943 111.483 25.4463 111.483 24.0703V16.8463H113.668Z" fill="#262626"/>
<path d="M122.011 30.2143C121.003 30.2143 120.099 30.0463 119.299 29.7103C118.499 29.3583 117.867 28.8783 117.403 28.2703C116.939 27.6463 116.683 26.9343 116.635 26.1343H118.891C118.955 26.7903 119.259 27.3263 119.803 27.7423C120.363 28.1583 121.091 28.3663 121.987 28.3663C122.819 28.3663 123.475 28.1823 123.955 27.8143C124.435 27.4463 124.675 26.9823 124.675 26.4223C124.675 25.8463 124.419 25.4223 123.907 25.1503C123.395 24.8623 122.603 24.5823 121.531 24.3103C120.555 24.0543 119.755 23.7983 119.131 23.5423C118.523 23.2703 117.995 22.8783 117.547 22.3663C117.115 21.8383 116.899 21.1503 116.899 20.3023C116.899 19.6303 117.099 19.0143 117.499 18.4543C117.899 17.8943 118.467 17.4543 119.203 17.1343C119.939 16.7983 120.779 16.6303 121.723 16.6303C123.179 16.6303 124.355 16.9983 125.251 17.7343C126.147 18.4703 126.627 19.4783 126.691 20.7583H124.507C124.459 20.0703 124.179 19.5183 123.667 19.1023C123.171 18.6863 122.499 18.4783 121.651 18.4783C120.867 18.4783 120.243 18.6463 119.779 18.9823C119.315 19.3183 119.083 19.7583 119.083 20.3023C119.083 20.7343 119.219 21.0943 119.491 21.3823C119.779 21.6543 120.131 21.8783 120.547 22.0543C120.979 22.2143 121.571 22.3983 122.323 22.6063C123.267 22.8623 124.035 23.1183 124.627 23.3743C125.219 23.6143 125.723 23.9823 126.139 24.4783C126.571 24.9743 126.795 25.6223 126.811 26.4223C126.811 27.1423 126.611 27.7903 126.211 28.3663C125.811 28.9423 125.243 29.3983 124.507 29.7343C123.787 30.0543 122.955 30.2143 122.011 30.2143Z" fill="#262626"/>
</svg>
