<svg width="359" height="120" viewBox="0 0 959 220" fill="none" xmlns="http://www.w3.org/2000/svg">
<path fill-rule="evenodd" clip-rule="evenodd" d="M188.977 56.4916C171.964 35.5208 145.191 22 115.077 22C63.6722 22 22 61.3989 22 110C22 158.601 63.6722 198 115.077 198C145.634 198 172.751 184.079 189.721 162.578L118.675 109.551L188.977 56.4916Z" fill="#FEB803"/>
<mask id="mask0_702_68610" style="mask-type:luminance" maskUnits="userSpaceOnUse" x="155" y="89" width="43" height="42">
<path d="M198 89.1445H155.859V130.138H198V89.1445Z" fill="white"/>
</mask>
<g mask="url(#mask0_702_68610)">
<path d="M197.162 104.866C196.604 104.323 195.925 104.051 195.127 104.051H182.676V91.9392C182.676 91.163 182.397 90.503 181.838 89.9594C181.279 89.4162 180.601 89.1445 179.802 89.1445H174.056C173.259 89.1445 172.58 89.416 172.021 89.9596C171.462 90.503 171.183 91.1632 171.183 91.9392V104.051H158.733C157.935 104.051 157.256 104.323 156.697 104.866C156.139 105.41 155.859 106.069 155.859 106.846V112.436C155.859 113.213 156.139 113.873 156.697 114.416C157.256 114.959 157.935 115.231 158.732 115.231H171.183V127.343C171.183 128.119 171.462 128.78 172.021 129.323C172.58 129.866 173.258 130.138 174.056 130.138H179.803C180.601 130.138 181.279 129.866 181.838 129.323C182.397 128.78 182.676 128.119 182.676 127.343V115.231H195.127C195.925 115.231 196.604 114.959 197.162 114.416C197.721 113.873 198 113.213 198 112.436V106.846C198 106.069 197.721 105.41 197.162 104.866Z" fill="white"/>
</g>
<path d="M314.011 97.2309C311.522 91.9938 307.916 87.9587 303.194 85.1255C298.472 82.2065 292.977 80.747 286.71 80.747C280.443 80.747 274.776 82.2065 269.711 85.1255C264.731 87.9587 260.782 92.0797 257.863 97.4885C255.03 102.811 253.613 108.993 253.613 116.033C253.613 123.073 255.03 129.254 257.863 134.577C260.782 139.9 264.731 144.021 269.711 146.94C274.776 149.773 280.443 151.19 286.71 151.19C295.467 151.19 302.679 148.571 308.345 143.334C314.011 138.097 317.317 131.014 318.261 122.086H282.46V112.556H330.753V121.57C330.066 128.954 327.748 135.736 323.799 141.918C319.849 148.013 314.655 152.864 308.216 156.47C301.777 159.99 294.608 161.75 286.71 161.75C278.382 161.75 270.784 159.818 263.916 155.955C257.047 152.006 251.596 146.554 247.561 139.6C243.611 132.646 241.637 124.79 241.637 116.033C241.637 107.276 243.611 99.4202 247.561 92.466C251.596 85.426 257.047 79.9743 263.916 76.1109C270.784 72.1616 278.382 70.187 286.71 70.187C296.24 70.187 304.653 72.548 311.951 77.2699C319.334 81.9919 324.7 88.6455 328.048 97.2309H314.011Z" fill="white"/>
<path d="M357.967 65.6797V160.977H346.248V65.6797H357.967Z" fill="white"/>
<path d="M408.718 162.136C402.108 162.136 396.098 160.634 390.689 157.629C385.366 154.624 381.159 150.374 378.069 144.88C375.064 139.299 373.561 132.86 373.561 125.563C373.561 118.351 375.107 111.998 378.197 106.503C381.374 100.923 385.667 96.6729 391.075 93.7538C396.484 90.749 402.537 89.2465 409.233 89.2465C415.93 89.2465 421.983 90.749 427.392 93.7538C432.8 96.6729 437.05 100.88 440.141 106.374C443.317 111.869 444.906 118.265 444.906 125.563C444.906 132.86 443.274 139.299 440.012 144.88C436.835 150.374 432.5 154.624 427.005 157.629C421.511 160.634 415.415 162.136 408.718 162.136ZM408.718 151.834C412.925 151.834 416.874 150.847 420.566 148.872C424.258 146.897 427.22 143.935 429.452 139.986C431.77 136.037 432.929 131.229 432.929 125.563C432.929 119.896 431.813 115.088 429.581 111.139C427.349 107.19 424.43 104.271 420.824 102.382C417.218 100.407 413.312 99.4202 409.105 99.4202C404.812 99.4202 400.863 100.407 397.257 102.382C393.737 104.271 390.904 107.19 388.757 111.139C386.611 115.088 385.538 119.896 385.538 125.563C385.538 131.315 386.568 136.166 388.629 140.115C390.775 144.064 393.608 147.026 397.128 149.001C400.648 150.889 404.512 151.834 408.718 151.834Z" fill="white"/>
<path d="M472.033 103.541C474.437 99.3343 477.957 95.9002 482.593 93.2387C487.229 90.5772 492.509 89.2465 498.433 89.2465C504.786 89.2465 510.496 90.749 515.561 93.7538C520.626 96.7587 524.618 101.008 527.537 106.503C530.457 111.912 531.916 118.222 531.916 125.434C531.916 132.56 530.457 138.913 527.537 144.493C524.618 150.074 520.583 154.409 515.432 157.5C510.367 160.591 504.7 162.136 498.433 162.136C492.337 162.136 486.972 160.806 482.336 158.144C477.785 155.483 474.351 152.091 472.033 147.97V160.977H460.314V65.6797H472.033V103.541ZM519.939 125.434C519.939 120.111 518.866 115.475 516.72 111.526C514.574 107.576 511.655 104.571 507.963 102.511C504.357 100.45 500.365 99.4202 495.986 99.4202C491.694 99.4202 487.701 100.493 484.01 102.64C480.404 104.7 477.485 107.748 475.253 111.783C473.106 115.732 472.033 120.326 472.033 125.563C472.033 130.886 473.106 135.565 475.253 139.6C477.485 143.549 480.404 146.597 484.01 148.743C487.701 150.804 491.694 151.834 495.986 151.834C500.365 151.834 504.357 150.804 507.963 148.743C511.655 146.597 514.574 143.549 516.72 139.6C518.866 135.565 519.939 130.843 519.939 125.434Z" fill="white"/>
<path d="M609.929 90.4055V160.977H598.21V150.546C595.978 154.152 592.844 156.985 588.809 159.046C584.86 161.02 580.481 162.007 575.673 162.007C570.179 162.007 565.242 160.891 560.863 158.659C556.485 156.341 553.008 152.907 550.432 148.357C547.942 143.807 546.698 138.269 546.698 131.744V90.4055H558.288V130.199C558.288 137.153 560.048 142.519 563.568 146.296C567.088 149.988 571.896 151.834 577.991 151.834C584.259 151.834 589.195 149.902 592.801 146.039C596.407 142.175 598.21 136.552 598.21 129.168V90.4055H609.929Z" fill="white"/>
<path d="M654.699 162.136C649.29 162.136 644.44 161.235 640.147 159.432C635.854 157.543 632.463 154.967 629.973 151.705C627.484 148.357 626.11 144.536 625.852 140.244H637.958C638.301 143.764 639.932 146.64 642.851 148.872C645.856 151.104 649.763 152.22 654.57 152.22C659.035 152.22 662.555 151.233 665.13 149.258C667.706 147.284 668.994 144.794 668.994 141.789C668.994 138.698 667.62 136.423 664.873 134.964C662.125 133.418 657.876 131.916 652.124 130.456C646.886 129.083 642.594 127.709 639.245 126.335C635.983 124.876 633.15 122.772 630.746 120.025C628.428 117.192 627.269 113.5 627.269 108.95C627.269 105.344 628.342 102.039 630.488 99.0338C632.635 96.029 635.683 93.668 639.632 91.9509C643.581 90.148 648.088 89.2465 653.154 89.2465C660.966 89.2465 667.277 91.2211 672.085 95.1704C676.892 99.1197 679.468 104.528 679.811 111.397H668.092C667.835 107.705 666.332 104.743 663.585 102.511C660.924 100.279 657.318 99.1626 652.767 99.1626C648.561 99.1626 645.212 100.064 642.723 101.867C640.233 103.67 638.988 106.031 638.988 108.95C638.988 111.268 639.718 113.2 641.177 114.745C642.723 116.205 644.611 117.407 646.844 118.351C649.162 119.209 652.338 120.197 656.373 121.313C661.439 122.687 665.56 124.06 668.736 125.434C671.913 126.722 674.617 128.696 676.849 131.358C679.167 134.019 680.369 137.496 680.455 141.789C680.455 145.652 679.382 149.129 677.236 152.22C675.089 155.311 672.042 157.758 668.092 159.561C664.229 161.278 659.764 162.136 654.699 162.136Z" fill="white"/>
<path d="M763.964 99.6777C763.964 104.915 762.762 109.723 760.359 114.101C757.955 118.394 754.263 121.871 749.283 124.532C744.304 127.194 738.122 128.525 730.739 128.525H717.088V160.977H695.067V70.5733H730.739C737.951 70.5733 744.046 71.8182 749.026 74.308C754.005 76.7977 757.74 80.2319 760.23 84.6104C762.719 88.9889 763.964 94.0114 763.964 99.6777ZM729.065 111.01C733.272 111.01 736.405 110.023 738.466 108.048C740.526 106.074 741.557 103.284 741.557 99.6777C741.557 96.0719 740.526 93.2816 738.466 91.307C736.405 89.3324 733.272 88.3451 729.065 88.3451H717.088V111.01H729.065Z" fill="#FEB803"/>
<path d="M797.45 65.6797V160.977H775.429V65.6797H797.45Z" fill="#FEB803"/>
<path d="M884.367 89.1177V160.977H862.346V151.19C860.113 154.367 857.066 156.942 853.202 158.917C849.425 160.806 845.218 161.75 840.582 161.75C835.087 161.75 830.236 160.548 826.029 158.144C821.823 155.654 818.56 152.091 816.242 147.455C813.924 142.819 812.765 137.367 812.765 131.1V89.1177H834.658V128.138C834.658 132.946 835.903 136.681 838.392 139.342C840.882 142.004 844.23 143.334 848.437 143.334C852.73 143.334 856.121 142.004 858.611 139.342C861.101 136.681 862.346 132.946 862.346 128.138V89.1177H884.367Z" fill="#FEB803"/>
<path d="M929.418 162.007C923.151 162.007 917.57 160.934 912.677 158.788C907.783 156.642 903.92 153.723 901.086 150.031C898.253 146.253 896.665 142.047 896.322 137.41H918.085C918.343 139.9 919.502 141.918 921.562 143.463C923.623 145.008 926.156 145.781 929.161 145.781C931.908 145.781 934.011 145.266 935.471 144.236C937.016 143.12 937.789 141.703 937.789 139.986C937.789 137.926 936.716 136.423 934.569 135.479C932.423 134.448 928.946 133.332 924.138 132.13C918.987 130.928 914.694 129.684 911.26 128.396C907.826 127.022 904.864 124.919 902.374 122.086C899.884 119.167 898.64 115.26 898.64 110.367C898.64 106.246 899.756 102.511 901.988 99.1626C904.306 95.7285 907.654 93.0241 912.033 91.0494C916.497 89.0748 921.777 88.0875 927.873 88.0875C936.887 88.0875 943.97 90.3197 949.122 94.7841C954.359 99.2485 957.363 105.172 958.136 112.556H937.789C937.445 110.066 936.329 108.091 934.441 106.632C932.638 105.172 930.234 104.443 927.229 104.443C924.653 104.443 922.679 104.958 921.305 105.988C919.931 106.932 919.244 108.263 919.244 109.98C919.244 112.041 920.318 113.586 922.464 114.616C924.696 115.647 928.13 116.677 932.766 117.707C938.089 119.081 942.425 120.454 945.773 121.828C949.121 123.116 952.041 125.262 954.53 128.267C957.106 131.186 958.437 135.135 958.523 140.115C958.523 144.322 957.321 148.099 954.917 151.447C952.599 154.71 949.207 157.286 944.743 159.174C940.364 161.063 935.256 162.007 929.418 162.007Z" fill="#FEB803"/>
</svg>
